<mxfile host="app.diagrams.net" modified="2023-07-13T17:39:27.267Z" agent="Mozilla/5.0 (Windows NT 10.0; Win64; x64) AppleWebKit/537.36 (KHTML, like Gecko) Chrome/114.0.0.0 Safari/537.36" etag="FmBHJnme8C9AzqGqraq2" version="21.6.2" type="device" pages="3">
  <diagram name="model;" id="m0bp66GId0jsyPTfsQyx">
    <mxGraphModel dx="1434" dy="756" grid="1" gridSize="10" guides="1" tooltips="1" connect="1" arrows="1" fold="1" page="1" pageScale="1" pageWidth="827" pageHeight="1169" math="0" shadow="0">
      <root>
        <mxCell id="0" />
        <mxCell id="1" parent="0" />
        <mxCell id="AQR6-81IKa9nh8-9OoVs-7" style="edgeStyle=orthogonalEdgeStyle;rounded=0;orthogonalLoop=1;jettySize=auto;html=1;" parent="1" source="AQR6-81IKa9nh8-9OoVs-1" target="AQR6-81IKa9nh8-9OoVs-2" edge="1">
          <mxGeometry relative="1" as="geometry" />
        </mxCell>
        <mxCell id="AQR6-81IKa9nh8-9OoVs-11" style="edgeStyle=orthogonalEdgeStyle;rounded=0;orthogonalLoop=1;jettySize=auto;html=1;entryX=0;entryY=0.5;entryDx=0;entryDy=0;" parent="1" source="AQR6-81IKa9nh8-9OoVs-1" target="AQR6-81IKa9nh8-9OoVs-3" edge="1">
          <mxGeometry relative="1" as="geometry">
            <Array as="points">
              <mxPoint x="90" y="290" />
            </Array>
          </mxGeometry>
        </mxCell>
        <mxCell id="AQR6-81IKa9nh8-9OoVs-1" value="Data raw&lt;br&gt;(12 file .csv)" style="rounded=1;whiteSpace=wrap;html=1;" parent="1" vertex="1">
          <mxGeometry x="40" y="140" width="120" height="60" as="geometry" />
        </mxCell>
        <mxCell id="AQR6-81IKa9nh8-9OoVs-8" style="edgeStyle=orthogonalEdgeStyle;rounded=0;orthogonalLoop=1;jettySize=auto;html=1;entryX=0;entryY=0.5;entryDx=0;entryDy=0;" parent="1" source="AQR6-81IKa9nh8-9OoVs-2" target="AQR6-81IKa9nh8-9OoVs-4" edge="1">
          <mxGeometry relative="1" as="geometry" />
        </mxCell>
        <mxCell id="AQR6-81IKa9nh8-9OoVs-2" value="Big Query" style="rounded=1;whiteSpace=wrap;html=1;" parent="1" vertex="1">
          <mxGeometry x="200" y="140" width="120" height="60" as="geometry" />
        </mxCell>
        <mxCell id="AQR6-81IKa9nh8-9OoVs-15" style="edgeStyle=orthogonalEdgeStyle;rounded=0;orthogonalLoop=1;jettySize=auto;html=1;entryX=0;entryY=0.5;entryDx=0;entryDy=0;" parent="1" source="AQR6-81IKa9nh8-9OoVs-3" target="AQR6-81IKa9nh8-9OoVs-12" edge="1">
          <mxGeometry relative="1" as="geometry" />
        </mxCell>
        <mxCell id="AQR6-81IKa9nh8-9OoVs-3" value="Tiền xử lý dữ liệu" style="rounded=1;whiteSpace=wrap;html=1;" parent="1" vertex="1">
          <mxGeometry x="200" y="260" width="120" height="60" as="geometry" />
        </mxCell>
        <mxCell id="AQR6-81IKa9nh8-9OoVs-9" style="edgeStyle=orthogonalEdgeStyle;rounded=0;orthogonalLoop=1;jettySize=auto;html=1;entryX=0;entryY=0.5;entryDx=0;entryDy=0;" parent="1" source="AQR6-81IKa9nh8-9OoVs-4" target="AQR6-81IKa9nh8-9OoVs-5" edge="1">
          <mxGeometry relative="1" as="geometry" />
        </mxCell>
        <mxCell id="AQR6-81IKa9nh8-9OoVs-4" value="DBT" style="rounded=1;whiteSpace=wrap;html=1;" parent="1" vertex="1">
          <mxGeometry x="360" y="140" width="120" height="60" as="geometry" />
        </mxCell>
        <mxCell id="AQR6-81IKa9nh8-9OoVs-10" style="edgeStyle=orthogonalEdgeStyle;rounded=0;orthogonalLoop=1;jettySize=auto;html=1;entryX=0;entryY=0.5;entryDx=0;entryDy=0;" parent="1" source="AQR6-81IKa9nh8-9OoVs-5" target="AQR6-81IKa9nh8-9OoVs-6" edge="1">
          <mxGeometry relative="1" as="geometry" />
        </mxCell>
        <mxCell id="AQR6-81IKa9nh8-9OoVs-5" value="Data Warehouse&lt;br&gt;(Big Query)" style="rounded=1;whiteSpace=wrap;html=1;" parent="1" vertex="1">
          <mxGeometry x="520" y="140" width="120" height="60" as="geometry" />
        </mxCell>
        <mxCell id="AQR6-81IKa9nh8-9OoVs-6" value="Power BI" style="rounded=1;whiteSpace=wrap;html=1;" parent="1" vertex="1">
          <mxGeometry x="680" y="140" width="120" height="60" as="geometry" />
        </mxCell>
        <mxCell id="AQR6-81IKa9nh8-9OoVs-12" value="" style="rounded=0;whiteSpace=wrap;html=1;" parent="1" vertex="1">
          <mxGeometry x="450" y="230" width="310" height="120" as="geometry" />
        </mxCell>
        <mxCell id="AQR6-81IKa9nh8-9OoVs-13" value="Linear Regression" style="rounded=1;whiteSpace=wrap;html=1;" parent="1" vertex="1">
          <mxGeometry x="470" y="260" width="120" height="60" as="geometry" />
        </mxCell>
        <mxCell id="AQR6-81IKa9nh8-9OoVs-14" value="K-Means" style="rounded=1;whiteSpace=wrap;html=1;" parent="1" vertex="1">
          <mxGeometry x="620" y="260" width="120" height="60" as="geometry" />
        </mxCell>
      </root>
    </mxGraphModel>
  </diagram>
  <diagram id="mOUWf70iW1QVdjqKMjF5" name="Trang-2">
    <mxGraphModel dx="1434" dy="756" grid="1" gridSize="10" guides="1" tooltips="1" connect="1" arrows="1" fold="1" page="1" pageScale="1" pageWidth="827" pageHeight="1169" math="0" shadow="0">
      <root>
        <mxCell id="0" />
        <mxCell id="1" parent="0" />
        <mxCell id="X4MJpI6rzj3HtqLi1CAJ-1" style="edgeStyle=orthogonalEdgeStyle;rounded=0;orthogonalLoop=1;jettySize=auto;html=1;entryX=0;entryY=0.5;entryDx=0;entryDy=0;" edge="1" parent="1" source="X4MJpI6rzj3HtqLi1CAJ-2" target="X4MJpI6rzj3HtqLi1CAJ-4">
          <mxGeometry relative="1" as="geometry" />
        </mxCell>
        <mxCell id="X4MJpI6rzj3HtqLi1CAJ-2" value="Big Query" style="rounded=1;whiteSpace=wrap;html=1;" vertex="1" parent="1">
          <mxGeometry x="200" y="140" width="120" height="60" as="geometry" />
        </mxCell>
        <mxCell id="X4MJpI6rzj3HtqLi1CAJ-3" style="edgeStyle=orthogonalEdgeStyle;rounded=0;orthogonalLoop=1;jettySize=auto;html=1;entryX=0;entryY=0.5;entryDx=0;entryDy=0;" edge="1" parent="1" source="X4MJpI6rzj3HtqLi1CAJ-4" target="X4MJpI6rzj3HtqLi1CAJ-5">
          <mxGeometry relative="1" as="geometry" />
        </mxCell>
        <mxCell id="X4MJpI6rzj3HtqLi1CAJ-4" value="DBT" style="rounded=1;whiteSpace=wrap;html=1;" vertex="1" parent="1">
          <mxGeometry x="360" y="140" width="120" height="60" as="geometry" />
        </mxCell>
        <mxCell id="X4MJpI6rzj3HtqLi1CAJ-5" value="Data Warehouse&lt;br&gt;(Big Query)" style="rounded=1;whiteSpace=wrap;html=1;" vertex="1" parent="1">
          <mxGeometry x="520" y="140" width="120" height="60" as="geometry" />
        </mxCell>
      </root>
    </mxGraphModel>
  </diagram>
  <diagram id="dLS7vuwNWmJfRPYsSf-V" name="Trang-3">
    <mxGraphModel dx="1434" dy="756" grid="1" gridSize="10" guides="1" tooltips="1" connect="1" arrows="1" fold="1" page="1" pageScale="1" pageWidth="827" pageHeight="1169" math="0" shadow="0">
      <root>
        <mxCell id="0" />
        <mxCell id="1" parent="0" />
        <mxCell id="ukKHaA9wq4OZhu8dh8rA-1" style="edgeStyle=orthogonalEdgeStyle;rounded=0;orthogonalLoop=1;jettySize=auto;html=1;entryX=0;entryY=0.5;entryDx=0;entryDy=0;" edge="1" parent="1" source="ukKHaA9wq4OZhu8dh8rA-2" target="ukKHaA9wq4OZhu8dh8rA-3">
          <mxGeometry relative="1" as="geometry" />
        </mxCell>
        <mxCell id="ukKHaA9wq4OZhu8dh8rA-2" value="Data Warehouse&lt;br&gt;(Big Query)" style="rounded=1;whiteSpace=wrap;html=1;" vertex="1" parent="1">
          <mxGeometry x="274" y="160" width="120" height="60" as="geometry" />
        </mxCell>
        <mxCell id="ukKHaA9wq4OZhu8dh8rA-3" value="Power BI" style="rounded=1;whiteSpace=wrap;html=1;" vertex="1" parent="1">
          <mxGeometry x="434" y="160" width="120" height="60" as="geometry" />
        </mxCell>
      </root>
    </mxGraphModel>
  </diagram>
</mxfile>
